<?xml version="1.0" encoding="UTF-8" standalone="no"?>
<svg version="1.1" id="Layer_1" x="0px" y="0px" viewBox="0 0 163.4 43" xml:space="preserve" width="163.4" height="43" xmlns="http://www.w3.org/2000/svg">
<style type="text/css">
  .st0{fill:#A100FF;}
</style>
<g id="g1">
  <polygon class="st0" points="95.1,4.9 95.1,0 111.2,6.5 111.2,10.5 95.1,17 95.1,12 104.5,8.5" id="polygon1"/>
  <path d="M 6.2,43 C 2.8,43 0,41.3 0,37.5 v -0.2 c 0,-4.6 4,-6.2 8.9,-6.2 h 2.3 v -0.9 c 0,-1.9 -0.8,-3 -2.8,-3 -1.8,0 -2.7,1 -2.8,2.4 h -5 c 0.4,-4.2 3.7,-6.2 8.1,-6.2 4.5,0 7.8,1.9 7.8,6.6 V 42.6 H 11.4 V 40.4 C 10.4,41.8 8.7,43 6.2,43 Z m 5,-6.6 V 34.6 H 9.1 c -2.6,0 -3.9,0.7 -3.9,2.4 v 0.2 c 0,1.3 0.8,2.2 2.6,2.2 1.8,-0.1 3.4,-1.1 3.4,-3 z M 28.4,43 c -5.2,0 -9,-3.2 -9,-9.6 v -0.3 c 0,-6.4 4,-9.8 9,-9.8 4.3,0 7.8,2.2 8.2,7.1 h -5 c -0.3,-1.8 -1.3,-3 -3.1,-3 -2.2,0 -3.8,1.8 -3.8,5.5 v 0.6 c 0,3.6 1.5,5.3 3.8,5.3 1.8,0 3,-1.3 3.2,-3.4 h 5 C 36.3,40.8 32.8,43 28.4,43 Z m 22.3,0 c -5.4,0 -9.2,-3.3 -9.2,-9.6 v -0.3 c 0,-6.3 3.8,-9.8 9.2,-9.8 5.4,0 9.2,3.4 9.2,9.8 v 0.3 C 59.9,39.7 56.1,43 50.7,43 Z m 3.9,-9.9 v -0.3 c 0,-3.7 -1.4,-5.5 -3.9,-5.5 -2.5,0 -3.9,1.8 -3.9,5.5 v 0.3 c 0,3.6 1.4,5.7 3.9,5.7 2.5,0 3.9,-2.1 3.9,-5.7 z m 10.6,9.5 V 23.7 h 5.1 v 2.5 c 1.1,-1.8 2.9,-2.9 5.2,-2.9 4.1,0 6.2,2.6 6.2,7 V 42.6 H 77.2 V 31 c 0,-2.4 -0.9,-3.5 -2.9,-3.5 -1.9,0 -3.2,1.2 -3.2,3.7 V 42.6 H 65.2 Z m 27.6,0 v -15 h -2.4 v -3.9 h 2.4 V 18.1 h 5.4 v 5.6 H 101 v 3.9 h -2.8 v 15 H 92.8 Z m 25.8,0.4 c -5.4,0 -9,-3.2 -9,-9.6 v -0.3 c 0,-6.3 3.4,-9.8 8.6,-9.8 5.5,0 8.4,3.6 8.4,9.4 v 1.5 h -11.7 c 0.2,2.8 1.7,4.6 4,4.6 1.9,0 2.9,-0.9 3.3,-2.2 h 5.1 c -0.7,3.4 -3.6,6.4 -8.7,6.4 z m -3.7,-11.6 h 6.8 c -0.1,-2.5 -1.4,-4.2 -3.4,-4.2 -2,0 -3.2,1.6 -3.4,4.2 z m 22.8,11.6 c -5.2,0 -9,-3.2 -9,-9.6 v -0.3 c 0,-6.4 4,-9.8 9,-9.8 4.3,0 7.8,2.2 8.2,7.1 h -5 c -0.3,-1.8 -1.3,-3 -3.1,-3 -2.2,0 -3.8,1.8 -3.8,5.5 v 0.6 c 0,3.6 1.5,5.3 3.8,5.3 1.8,0 3,-1.3 3.2,-3.4 h 5 C 155.4,40.8 151.9,43 147.5,43 Z m 15.9,0 c -2.2,0 -3.7,-1.4 -3.7,-3.5 v -0.2 c 0,-2.1 1.5,-3.5 3.7,-3.5 2.2,0 3.7,1.4 3.7,3.5 v 0.2 c 0,2.1 -1.5,3.5 -3.7,3.5 z" fill="#000000"/>
</g>
</svg>
