<?xml version="1.0" encoding="iso-8859-1"?>
<!-- Uploaded to: SVG Repo, www.svgrepo.com, Generator: SVG Repo Mixer Tools -->
<svg height="800px" width="800px" version="1.1" id="Layer_1" xmlns="http://www.w3.org/2000/svg" xmlns:xlink="http://www.w3.org/1999/xlink" 
	 viewBox="0 0 496 496" xml:space="preserve">
<path style="fill:#0EE0B8;" d="M404,0H92C78.4,0,64,12.8,64,25.6v320L222.4,496H404c13.6,0,28-12.8,28-26.4v-444
	C432,12.8,417.6,0,404,0z"/>
<path style="fill:#BC0606;" d="M404,0H92C78.4,0,64,12.8,64,25.6v320L222.4,496H404c13.6,0,28-12.8,28-26.4v-444
	C432,12.8,417.6,0,404,0z"/>
<path style="fill:#9E0404;" d="M432,384V25.6C432,12.8,417.6,0,404,0H92C78.4,0,66.4,11.2,66.4,24"/>
<path style="fill:#820303;" d="M432,384V25.6C432,12.8,417.6,0,404,0H208"/>
<path style="fill:#9E0404;" d="M200,352v119.2c0,1.6,1.6,3.2,1.6,4.8l19.2,18.4c1.6,0,3.2,1.6,4.8,1.6h125.6l-148-144H200z"/>
<path style="fill:#820303;" d="M200,351.2v120c0,1.6,1.6,3.2,1.6,4.8l19.2,18.4c1.6,0,3.2,1.6,4.8,1.6h64l-72.8-120.8L200,351.2z"/>
<path style="fill:#FFFFFF;" d="M222.4,496h1.6V370.4c0-13.6-12-26.4-25.6-26.4L64,345.6L222.4,496z"/>
<polyline style="fill:#FCDEDE;" points="64,345.6 222.4,496 224,496 224,368 "/>
<path style="fill:#FF5A5A;" d="M80,345.6L80,345.6v-320C80,12.8,89.6,0,102.4,0H92C78.4,0,64,12.8,64,25.6v320H80L80,345.6z"/>
<path style="fill:#FFFFFF;" d="M376,241.6c8-17.6-26.4-23.2-74.4-17.6c-8-4.8-16.8-10.4-24-16c-18.4-15.2-32-40-40-65.6
	c4-20.8,3.2-39.2,4-58.4c-1.6,8.8-3.2,24-8,44.8c-6.4-24.8-8-47.2-4-59.2c0.8-2.4,3.2-5.6,4-6.4c3.2,1.6,8,6.4,8.8,15.2
	c3.2-16.8-4.8-16-7.2-16h-5.6c-3.2,0-5.6,2.4-6.4,7.2c-4,16-2.4,44.8,6.4,73.6c-5.6,19.2-14.4,43.2-28,71.2
	c-33.6,68-59.2,103.2-77.6,104c-1.6-8.8,16-34.4,41.6-52.8c-41.6,22.4-50.4,47.2-46.4,52l6.4,3.2c12,6.4,32.8-10.4,65.6-66.4
	c30.4-11.2,71.2-19.2,107.2-22.4c35.2,18.4,75.2,24.8,76.8,12.8c-8.8,4-35.2-1.6-61.6-14.4C349.6,228,376.8,231.2,376,241.6z
	 M191.2,253.6c5.6-9.6,12-20.8,18.4-32.8c12.8-24.8,20.8-45.6,24.8-63.2c8,21.6,20.8,42.4,36.8,56c4.8,4,10.4,8.8,16.8,12
	C257.6,230.4,222.4,240,191.2,253.6z"/>
<g style="opacity:0.1;">
	<path style="opacity:0.1;enable-background:new    ;" d="M376,247.2c8-17.6-26.4-23.2-74.4-17.6c-8-4.8-16.8-10.4-24-16
		c-18.4-15.2-32-40-40-65.6c4-20.8,3.2-39.2,4-58.4c-1.6,8.8-3.2,24-8,44.8c-6.4-24.8-8-47.2-4-59.2c0.8-2.4,3.2-5.6,4-6.4
		c3.2,1.6,8,6.4,8.8,15.2c3.2-16.8-4.8-16-7.2-16h-5.6c-3.2,0-5.6,2.4-6.4,7.2c-4,16-2.4,44.8,6.4,73.6c-5.6,19.2-14.4,43.2-28,71.2
		C168,288,142.4,323.2,124,324c-1.6-8.8,16-34.4,41.6-52.8c-41.6,22.4-50.4,47.2-46.4,52l6.4,3.2c12,6.4,32.8-10.4,65.6-66.4
		c30.4-11.2,71.2-19.2,107.2-22.4c35.2,18.4,75.2,24.8,76.8,12.8c-8.8,4-35.2-1.6-61.6-14.4C349.6,233.6,376.8,236.8,376,247.2z
		 M191.2,259.2c5.6-9.6,12-20.8,18.4-32.8c12.8-24.8,20.8-45.6,24.8-63.2c8,21.6,20.8,42.4,36.8,56c4.8,4,10.4,8.8,16.8,12
		C257.6,236,222.4,245.6,191.2,259.2z"/>
	<path style="opacity:0.1;enable-background:new    ;" d="M131.2,331.2c-2.4,0-4.8-0.8-7.2-1.6l-6.4-3.2c-0.8,0-0.8-0.8-1.6-0.8
		c-1.6-2.4-2.4-4.8-1.6-8.8c2.4-12,16.8-32,48.8-48.8c1.6-0.8,4,0,5.6,1.6c0.8,0.8,0.8,1.6,0.8,2.4c8-13.6,17.6-31.2,28.8-52.8
		c12-24,20.8-47.2,27.2-68.8c-8.8-28-11.2-57.6-6.4-75.2c1.6-7.2,5.6-11.2,11.2-11.2h5.6c1.6,0,6.4,0,8.8,4c3.2,3.2,4,9.6,2.4,17.6
		c0,0.8-0.8,1.6-0.8,2.4s0.8,1.6,0.8,2.4v8c0,16.8-0.8,32-4,50.4c9.6,28,23.2,49.6,38.4,62.4c6.4,5.6,14.4,10.4,22.4,15.2
		c11.2-1.6,21.6-1.6,31.2-1.6c17.6,0,39.2,2.4,45.6,12.8c1.6,2.4,3.2,7.2,0,12.8c0,0.8-0.8,0.8-0.8,0.8s0,0,0,0.8
		c-0.8,4-4.8,9.6-17.6,9.6c-16.8,0-42.4-8-64-19.2c-36.8,4-75.2,12-103.2,21.6C167.2,308.8,146.4,331.2,131.2,331.2z M168,274.4
		c-20.8,16-35.2,35.2-39.2,44.8C137.6,316,149.6,304,168,274.4z M230.4,136.8c0.8,4,2.4,8,3.2,11.2c0,0.8,0,1.6,0,2.4
		c-6.4,23.2-16,47.2-28,71.2c-13.6,28-26.4,50.4-37.6,67.2c5.6-8,12-18.4,19.2-31.2l0,0l0,0c5.6-10.4,12-20.8,18.4-32.8
		c12-22.4,20-43.2,24.8-62.4c0.8-1.6,1.6-3.2,4-3.2c1.6,0,3.2,0.8,4,2.4c8.8,23.2,21.6,42.4,36,54.4c4.8,4,10.4,8,16,12
		c1.6,0.8,2.4,2.4,1.6,4c0,0.8,0,0.8-0.8,1.6c2.4,0,4-0.8,6.4-0.8c0.8,0,1.6,0,2.4,0.8c5.6,3.2,10.4,5.6,16,7.2
		c-1.6-0.8-2.4-0.8-4-1.6s-2.4-2.4-2.4-4c0-0.8,0.8-1.6,1.6-2.4c-3.2,0-5.6,0.8-8.8,0.8c-0.8,0-1.6,0-2.4-0.8
		c-8.8-4.8-16.8-10.4-24-16c-16.8-13.6-32-37.6-41.6-67.2c0-0.8,0-1.6,0-1.6c0.8-3.2,0.8-6.4,1.6-9.6c-0.8,0-0.8,0-1.6,0
		C232.8,138.4,231.2,137.6,230.4,136.8z M235.2,175.2c-4.8,16-12.8,33.6-22.4,52.8c-4,8-8,16-12,23.2c24-9.6,50.4-16.8,76.8-21.6
		c-3.2-2.4-5.6-4.8-8.8-7.2C256,211.2,244.8,194.4,235.2,175.2z M331.2,239.2c13.6,5.6,27.2,8.8,35.2,8.8c2.4,0,4,0,5.6-0.8
		c0,0,0-0.8-0.8-1.6c-1.6-1.6-8-6.4-37.6-6.4C333.6,239.2,332.8,239.2,331.2,239.2z M234.4,74.4c0,0.8-0.8,1.6-0.8,1.6
		c-2.4,8-2.4,21.6,0,38.4c0.8-5.6,1.6-10.4,2.4-15.2c0.8-4,1.6-8,1.6-11.2c0-0.8,0.8-1.6,0.8-2.4s-0.8-0.8-0.8-1.6
		C238.4,80,236,76.8,234.4,74.4z"/>
</g>
</svg>